<svg width="90" height="60" viewBox="0 0 90 60" fill="none" xmlns="http://www.w3.org/2000/svg">
<rect width="89.424" height="59.616" rx="6.624" fill="white"/>
<rect x="1.656" y="1.656" width="86.112" height="56.304" rx="4.968" stroke="black" stroke-opacity="0.2" stroke-width="3.312"/>
<path fill-rule="evenodd" clip-rule="evenodd" d="M88.5616 44.2152V50.6934H80.3346L77.2942 47.1364L74.1345 50.6934H50.7651V31.7555H43.0547L52.6927 9.936H62.0722L64.3376 14.8841V9.936H75.9826L77.9301 15.1226L79.8378 9.936H88.5616V13.0161H81.825L78.7647 21.0842L77.95 23.2701L74.0352 13.0161H67.2986V28.9137L60.3036 13.0161H54.8786L47.8439 28.9137H52.4542L53.6863 25.8535H61.3966L62.6287 28.9137H67.2986H71.3525V18.5605L71.3326 16.4739L72.1275 18.5605L76.0025 28.9137H79.8577L83.7526 18.5605L84.5077 16.4938V28.9137H88.5616V35.1337L84.0705 39.6446L88.5616 44.2152ZM54.024 47.6133V31.7752H67.2986V35.2132H58.0779V37.9952H67.1198V41.4133H58.0779V44.1754H67.2986V47.6133H54.024ZM87.3296 47.6133H82.0635L77.2545 42.4465L72.4256 47.6133H67.2986L74.7108 39.7241L67.2986 31.7752H72.5845L77.3538 36.9222L82.143 31.7752H87.3296L79.8974 39.6644L87.3296 47.6133Z" fill="#016FD0"/>
<path d="M57.5414 16.4143L56.7466 18.4015L55.0971 22.4156H59.9856L58.3363 18.4015L57.5414 16.4143Z" fill="#016FD0"/>
</svg>
