<svg width="90" height="60" viewBox="0 0 90 60" fill="none" xmlns="http://www.w3.org/2000/svg">
<g clip-path="url(#clip0_607_3111)">
<rect width="89.424" height="59.616" rx="6.624" fill="white"/>
<path d="M89.4251 39.744C89.4251 39.744 69.5383 53.4638 33.1211 59.616H89.4251V39.744Z" fill="#F48120"/>
<path d="M10.1138 23.0198H6.625V35.2417H10.1138C11.9582 35.2417 13.2915 34.7973 14.4693 33.8418C15.8693 32.6862 16.6915 30.9529 16.6915 29.153C16.6692 25.5308 13.9804 23.0198 10.1138 23.0198ZM12.9138 32.2196C12.1582 32.8862 11.2027 33.1973 9.64716 33.1973H9.00273V25.1086H9.64716C11.1805 25.1086 12.1138 25.3753 12.9138 26.0864C13.736 26.8197 14.2248 27.953 14.2248 29.1308C14.2248 30.3085 13.736 31.4863 12.9138 32.2196Z" fill="#231F20"/>
<path d="M20.1551 23.0198H17.7773V35.2417H20.1551V23.0198Z" fill="#231F20"/>
<path d="M25.9789 27.7085C24.5567 27.1752 24.1345 26.8197 24.1345 26.1752C24.1345 25.3975 24.89 24.8197 25.9122 24.8197C26.6233 24.8197 27.2233 25.1086 27.8233 25.8197L29.0677 24.1975C28.0455 23.3086 26.8233 22.842 25.4678 22.842C23.3123 22.842 21.6456 24.3531 21.6456 26.353C21.6456 28.0419 22.4234 28.9085 24.6456 29.7085C25.5789 30.0418 26.0456 30.264 26.29 30.3974C26.7567 30.7085 27.0011 31.1529 27.0011 31.664C27.0011 32.664 26.2233 33.3973 25.1567 33.3973C24.0234 33.3973 23.1123 32.8195 22.5567 31.7751L21.0234 33.264C22.1123 34.8862 23.4456 35.5973 25.2456 35.5973C27.7122 35.5973 29.4677 33.9529 29.4677 31.5751C29.5121 29.5974 28.6899 28.7085 25.9789 27.7085Z" fill="#231F20"/>
<path d="M30.2461 29.153C30.2461 32.7529 33.0683 35.5306 36.6904 35.5306C37.7126 35.5306 38.6015 35.3306 39.6681 34.8195V32.0196C38.7126 32.9751 37.8682 33.3529 36.8015 33.3529C34.4016 33.3529 32.6905 31.6196 32.6905 29.1308C32.6905 26.7752 34.446 24.9308 36.6904 24.9308C37.8237 24.9308 38.6904 25.3308 39.6681 26.3086V23.5087C38.6237 22.9753 37.757 22.7531 36.7348 22.7531C33.1571 22.7531 30.2461 25.5975 30.2461 29.153Z" fill="#231F20"/>
<path d="M58.6009 31.2418L55.3343 23.0198H52.7344L57.912 35.5528H59.2009L64.4675 23.0198H61.8897L58.6009 31.2418Z" fill="#231F20"/>
<path d="M65.5547 35.2417H72.3101V33.1751H67.9324V29.8863H72.1545V27.8197H67.9324V25.1086H72.3101V23.0198H65.5547V35.2417Z" fill="#231F20"/>
<path d="M81.7532 26.6419C81.7532 24.353 80.1755 23.042 77.42 23.042H73.8867V35.2639H76.2644V30.3529H76.5755L79.8644 35.2639H82.7976L78.9533 30.1085C80.7532 29.7307 81.7532 28.5085 81.7532 26.6419ZM76.9533 28.6641H76.2644V24.953H76.9978C78.4866 24.953 79.2866 25.5752 79.2866 26.7752C79.2866 27.9974 78.4866 28.6641 76.9533 28.6641Z" fill="#231F20"/>
<path d="M46.9797 35.6861C50.5756 35.6861 53.4907 32.7711 53.4907 29.1752C53.4907 25.5792 50.5756 22.6642 46.9797 22.6642C43.3838 22.6642 40.4688 25.5792 40.4688 29.1752C40.4688 32.7711 43.3838 35.6861 46.9797 35.6861Z" fill="#F48120"/>
</g>
<rect x="1.656" y="1.656" width="86.112" height="56.304" rx="4.968" stroke="black" stroke-opacity="0.2" stroke-width="3.312"/>
<defs>
<clipPath id="clip0_607_3111">
<rect width="89.424" height="59.616" rx="6.624" fill="white"/>
</clipPath>
</defs>
</svg>
