<svg width="90" height="60" viewBox="0 0 90 60" fill="none" xmlns="http://www.w3.org/2000/svg">
<rect width="89.424" height="59.616" rx="6.624" fill="white"/>
<rect x="1.656" y="1.656" width="86.112" height="56.304" rx="4.968" stroke="black" stroke-opacity="0.2" stroke-width="3.312"/>
<path d="M37.0977 15.9542H52.3215V43.3088H37.0977V15.9542Z" fill="#FF5F00"/>
<path d="M38.0653 29.6314C38.0653 24.0735 40.6751 19.1439 44.6864 15.9541C41.7383 13.6343 38.0169 12.2327 33.9573 12.2327C24.3397 12.2327 16.5586 20.0138 16.5586 29.6314C16.5586 39.249 24.3397 47.03 33.9573 47.03C38.0169 47.03 41.7383 45.6285 44.6864 43.3087C40.6751 40.1673 38.0653 35.1893 38.0653 29.6314Z" fill="#EB001B"/>
<path d="M72.8661 29.6314C72.8661 39.249 65.0851 47.03 55.4675 47.03C51.4078 47.03 47.6864 45.6285 44.7383 43.3087C48.798 40.1189 51.3594 35.1893 51.3594 29.6314C51.3594 24.0735 48.7496 19.1439 44.7383 15.9541C47.6864 13.6343 51.4078 12.2327 55.4675 12.2327C65.0851 12.2327 72.8661 20.0621 72.8661 29.6314Z" fill="#F79E1B"/>
</svg>
