<svg width="36" height="43" viewBox="0 0 36 43" fill="none" xmlns="http://www.w3.org/2000/svg">
<path fill-rule="evenodd" clip-rule="evenodd" d="M32.2381 10.7673C32.1993 11.0187 32.1542 11.2756 32.1041 11.5395C30.3739 20.459 24.4544 23.5403 16.8944 23.5403H13.045C12.1204 23.5403 11.3411 24.2142 11.1974 25.1299L8.66836 41.2368C8.57472 41.8382 9.03625 42.3799 9.64039 42.3799H16.4677C17.276 42.3799 17.9628 41.7902 18.0901 40.9897L18.1571 40.6416L19.4426 32.4511L19.5253 32.0018C19.651 31.1986 20.3394 30.6085 21.1477 30.6085H22.1687C28.7833 30.6085 33.9615 27.9123 35.475 20.1093C36.107 16.8497 35.7798 14.128 34.1069 12.2138C33.6007 11.6367 32.9727 11.1576 32.2381 10.7673Z" fill="#298FC2"/>
<path fill-rule="evenodd" clip-rule="evenodd" d="M30.4263 10.0429C30.1619 9.96544 29.8892 9.89542 29.6094 9.83209C29.3281 9.77033 29.0402 9.71565 28.7436 9.66765C27.7057 9.49929 26.5684 9.41943 25.3503 9.41943H15.067C14.8135 9.41943 14.5729 9.47687 14.3578 9.58072C13.8834 9.80966 13.5312 10.2605 13.4458 10.8124L11.258 24.7246L11.1953 25.1301C11.3391 24.2144 12.1184 23.5405 13.043 23.5405H16.8923C24.4523 23.5405 30.3719 20.4576 32.102 11.5397C32.1537 11.2758 32.1972 11.0189 32.236 10.7675C31.7984 10.5343 31.3243 10.3348 30.8138 10.1649C30.6877 10.1228 30.5576 10.0823 30.4263 10.0429Z" fill="#22284F"/>
<path fill-rule="evenodd" clip-rule="evenodd" d="M13.4473 10.8124C13.5327 10.2605 13.8849 9.80965 14.3594 9.58228C14.576 9.47803 14.815 9.4206 15.0685 9.4206H25.3518C26.5699 9.4206 27.7073 9.50085 28.7451 9.66922C29.0417 9.71681 29.3297 9.77189 29.611 9.83365C29.8907 9.89659 30.1634 9.967 30.4279 10.0441C30.5591 10.0834 30.6892 10.1244 30.8165 10.1649C31.327 10.3348 31.8015 10.5358 32.2391 10.7675C32.7539 7.47142 32.2348 5.2272 30.46 3.19501C28.503 0.957481 24.9714 0 20.4521 0H7.33184C6.40878 0 5.62128 0.673856 5.47867 1.59121L0.0139854 36.3709C-0.0937568 37.0589 0.434768 37.6797 1.12589 37.6797H9.22575L13.4473 10.8124Z" fill="#28356A"/>
</svg>
