<svg width="193" height="51" viewBox="0 0 193 51" fill="none" xmlns="http://www.w3.org/2000/svg">
<mask id="mask0_613_3009" style="mask-type:luminance" maskUnits="userSpaceOnUse" x="0" y="0" width="193" height="51">
<path d="M0 0H192.365V51H0V0Z" fill="white"/>
</mask>
<g mask="url(#mask0_613_3009)">
<path d="M70.1789 30.9082C72.9732 30.9059 75.6748 29.905 77.7961 28.0861C79.9174 26.2672 81.3188 23.75 81.7475 20.9887C82.6513 15.2328 78.1539 10.2081 71.7815 10.2081H61.5108C61.3182 10.2056 61.1312 10.2729 60.9842 10.3975C60.8373 10.522 60.7403 10.6956 60.7113 10.886L56.1339 39.9401C56.1173 40.0463 56.124 40.1548 56.1533 40.2581C56.1825 40.3615 56.2338 40.4572 56.3036 40.5389C56.3734 40.6206 56.46 40.6862 56.5575 40.7313C56.6551 40.7763 56.7612 40.7998 56.8686 40.8H62.3035C62.4957 40.8019 62.6822 40.7344 62.8287 40.6099C62.9751 40.4853 63.0717 40.3121 63.1008 40.1221L64.4473 31.5873C64.4761 31.3969 64.5728 31.2232 64.7195 31.0984C64.8662 30.9736 65.0531 30.9061 65.2457 30.9082H70.1789ZM74.7273 20.7268C74.3912 22.8544 72.7468 24.4223 69.5995 24.4223H65.5737L66.7939 16.6813H70.7467C74.003 16.6883 75.061 18.6084 74.7273 20.7326V20.7268ZM105.295 19.3594H100.135C99.942 19.3571 99.7551 19.4245 99.6082 19.549C99.4613 19.6736 99.3643 19.8469 99.335 20.0373L99.1681 21.108C99.1681 21.108 95.162 16.7335 88.0723 19.6885C84.0048 21.3815 82.0534 24.88 81.2237 27.441C81.2237 27.441 78.585 35.226 84.5495 39.5125C84.5495 39.5125 90.0783 43.6333 96.3058 39.2576L96.198 39.9401C96.1813 40.0463 96.1877 40.1549 96.217 40.2583C96.2462 40.3617 96.2975 40.4576 96.3673 40.5393C96.4371 40.621 96.5238 40.6866 96.6214 40.7317C96.719 40.7767 96.8252 40.8 96.9327 40.8H102.091C102.283 40.8025 102.47 40.7352 102.617 40.6106C102.764 40.4861 102.861 40.3125 102.89 40.1221L106.028 20.2192C106.045 20.1131 106.038 20.0046 106.009 19.9013C105.98 19.7979 105.928 19.7021 105.859 19.6205C105.789 19.5388 105.702 19.4732 105.605 19.4281C105.507 19.383 105.402 19.3596 105.295 19.3594ZM97.708 30.359C97.5061 31.7457 96.8081 33.0121 95.7434 33.9234C94.6788 34.8346 93.3198 35.3287 91.9185 35.3141C91.3697 35.3203 90.8234 35.2402 90.2996 35.0765C88.0746 34.3627 86.8057 32.2235 87.1708 29.9059C87.3729 28.5153 88.0738 27.2457 89.1428 26.3338C90.2119 25.4219 91.5761 24.9299 92.9811 24.9496C93.5304 24.9438 94.0774 25.0249 94.6012 25.1883C96.818 25.8998 98.0788 28.039 97.7138 30.359H97.708Z" fill="#003087"/>
<path d="M144.474 30.9082C147.27 30.9075 149.973 29.9074 152.097 28.0884C154.22 26.2694 155.623 23.7513 156.053 20.9887C156.956 15.2328 152.459 10.2081 146.085 10.2081H135.817C135.625 10.2062 135.438 10.2736 135.292 10.3981C135.145 10.5227 135.048 10.6959 135.019 10.886L130.428 39.9483C130.401 40.1083 130.429 40.2726 130.505 40.4157C130.582 40.5587 130.703 40.6726 130.851 40.7397C130.948 40.7853 131.055 40.809 131.162 40.8093H136.598C136.791 40.8112 136.978 40.7436 137.124 40.6188C137.271 40.4941 137.368 40.3206 137.397 40.1302L138.745 31.5954C138.773 31.4049 138.87 31.2311 139.017 31.1062C139.163 30.9814 139.35 30.914 139.543 30.9164L144.474 30.9082ZM149.022 20.7268C148.686 22.8544 147.042 24.4223 143.893 24.4223H139.869L141.09 16.6813H145.043C148.297 16.6883 149.357 18.6085 149.022 20.7326V20.7268ZM179.589 19.3594H174.434C174.242 19.3574 174.055 19.4249 173.909 19.5494C173.762 19.6739 173.665 19.8471 173.636 20.0373L173.467 21.108C173.467 21.108 169.462 16.7335 162.372 19.6885C158.306 21.3815 156.353 24.88 155.522 27.441C155.522 27.441 152.885 35.226 158.848 39.5125C158.848 39.5125 164.378 43.6333 170.605 39.2576L170.498 39.9401C170.471 40.1002 170.499 40.2645 170.575 40.4075C170.651 40.5506 170.773 40.6645 170.921 40.7316C171.018 40.778 171.125 40.8012 171.232 40.8012H176.39C176.583 40.8041 176.77 40.7368 176.917 40.6118C177.064 40.4869 177.161 40.3129 177.189 40.1221L180.328 20.2192C180.343 20.1127 180.336 20.0042 180.307 19.9007C180.277 19.7972 180.226 19.7012 180.156 19.6189C180.087 19.5365 180 19.4705 179.902 19.4256C179.803 19.3807 179.697 19.3581 179.589 19.3594ZM172.003 30.359C171.803 31.7467 171.106 33.0146 170.041 33.9263C168.976 34.8379 167.615 35.3312 166.213 35.3141C165.664 35.3206 165.117 35.2404 164.592 35.0766C162.366 34.3627 161.096 32.2235 161.461 29.9059C161.663 28.5189 162.361 27.2522 163.425 26.3407C164.49 25.4293 165.849 24.935 167.251 24.9496C167.801 24.9438 168.348 25.0237 168.872 25.1883C171.112 25.8998 172.376 28.039 172.009 30.359H172.003Z" fill="#0070E0"/>
<path d="M124.232 19.8519L118.013 30.3497L114.857 19.9295C114.808 19.7642 114.706 19.6193 114.567 19.5165C114.428 19.4137 114.26 19.3586 114.088 19.3594H108.477C108.38 19.3575 108.284 19.3791 108.198 19.4224C108.111 19.4657 108.036 19.5293 107.98 19.6079C107.923 19.6864 107.887 19.7774 107.873 19.8732C107.86 19.969 107.869 20.0667 107.902 20.1578L113.557 37.7094L108.443 45.9811C108.385 46.0722 108.353 46.1771 108.35 46.2849C108.347 46.3927 108.373 46.4993 108.425 46.5935C108.478 46.6878 108.555 46.7661 108.648 46.8202C108.741 46.8744 108.847 46.9024 108.955 46.9012H115.001C115.174 46.9021 115.344 46.8579 115.494 46.773C115.645 46.688 115.771 46.5653 115.86 46.4168L131.657 20.2829C131.714 20.1917 131.745 20.0869 131.747 19.9794C131.749 19.8719 131.723 19.7658 131.67 19.6723C131.617 19.5787 131.54 19.5011 131.447 19.4477C131.353 19.3942 131.247 19.3669 131.14 19.3686H125.097C124.923 19.3666 124.752 19.4102 124.6 19.495C124.448 19.5797 124.321 19.7028 124.232 19.8519Z" fill="#003087"/>
<path d="M185.39 10.8779L180.799 39.9402C180.773 40.1002 180.8 40.2645 180.876 40.4076C180.953 40.5506 181.074 40.6645 181.222 40.7317C181.319 40.778 181.426 40.8012 181.533 40.8012H186.967C187.16 40.8036 187.347 40.7361 187.494 40.6113C187.641 40.4865 187.737 40.3127 187.766 40.1221L192.358 11.0599C192.375 10.9537 192.369 10.8451 192.34 10.7416C192.311 10.6381 192.259 10.5423 192.189 10.4608C192.119 10.3792 192.032 10.3137 191.935 10.2687C191.837 10.2237 191.731 10.2003 191.623 10.2H186.189C185.996 10.1981 185.809 10.2655 185.663 10.39C185.516 10.5146 185.419 10.6878 185.39 10.8779Z" fill="#0070E0"/>
<path d="M40.7288 23.4778C39.563 30.1237 34.1408 35.1472 27.0256 35.1472H22.5085C21.5873 35.1472 20.659 36.0001 20.5119 36.9434L18.5338 49.4993C18.419 50.2143 18.0841 50.4519 17.3599 50.4519H10.094C9.35932 50.4519 9.18549 50.2062 9.29558 49.4819L10.1299 40.7988L1.4086 40.3481C0.675064 40.3481 0.409693 39.9483 0.513987 39.2159L6.46457 1.48446C6.57929 0.769461 7.02428 0.462372 7.74623 0.462372H22.8376C30.1023 0.462372 34.6982 5.35262 35.2603 11.6937C39.5827 14.614 41.6037 18.4995 40.7299 23.4767L40.7288 23.4778Z" fill="#001C64"/>
<path d="M12.3399 26.7399L10.13 40.8L8.73247 49.621C8.70651 49.7911 8.71748 49.9647 8.76463 50.1302C8.81177 50.2956 8.894 50.449 9.0057 50.5798C9.11741 50.7107 9.25598 50.8159 9.41199 50.8884C9.56801 50.9609 9.7378 50.999 9.90984 51H17.5836C17.9339 50.9996 18.2725 50.8743 18.5386 50.6466C18.8048 50.4189 18.981 50.1037 19.0356 49.7577L21.0554 36.9411C21.1103 36.5953 21.2866 36.2805 21.5527 36.053C21.8189 35.8255 22.1574 35.7004 22.5075 35.7H27.0246C30.4666 35.6955 33.7938 34.4616 36.4064 32.2206C39.0189 29.9796 40.745 26.8791 41.2735 23.4778C42.0557 18.4868 39.5445 13.943 35.2464 11.6984C35.2367 12.2301 35.1903 12.7606 35.1074 13.286C34.577 16.6854 32.8502 19.7837 30.2381 22.023C27.626 24.2623 24.3002 25.4953 20.8596 25.5H13.7908C13.4409 25.5001 13.1026 25.6251 12.8366 25.8524C12.5707 26.0797 12.3945 26.3944 12.3399 26.7399Z" fill="#0070E0"/>
<path d="M10.1293 40.8H1.19357C1.02117 40.7992 0.850981 40.7612 0.694594 40.6886C0.538208 40.6161 0.399302 40.5106 0.287342 40.3795C0.175382 40.2484 0.092999 40.0948 0.0458084 39.9289C-0.00138227 39.7631 -0.0122718 39.5891 0.0138816 39.4187L6.03515 1.24226C6.08928 0.896281 6.2652 0.581005 6.5312 0.353243C6.79721 0.125482 7.13581 0.000209946 7.486 0H22.8289C30.0936 0 35.3755 5.28657 35.2515 11.6914C33.318 10.6939 31.1706 10.182 28.995 10.2H16.2039C15.8536 10.2001 15.5148 10.3251 15.2484 10.5526C14.9821 10.7801 14.8056 11.0951 14.7507 11.4411L12.3403 26.7399L10.1293 40.8Z" fill="#003087"/>
</g>
</svg>
