<svg width="124" height="149" viewBox="0 0 124 149" fill="none" xmlns="http://www.w3.org/2000/svg">
<path d="M62 148.594L60.9516 120.397C60.3101 103.146 46.4229 89.3104 29.1154 88.6799L1.296e-05 87.6191L29.1153 86.5584C46.4229 85.9279 60.3101 72.0928 60.9516 54.8416L62 26.644L63.0485 54.8416C63.6899 72.0928 77.5771 85.9279 94.8847 86.5584L124 87.6192L94.8847 88.6799C77.5771 89.3104 63.6899 103.146 63.0485 120.397L62 148.594Z" fill="#FFE70F" fill-opacity="0.5"/>
<path d="M99.405 48.1653L98.989 37.0284C98.7346 30.2149 93.2256 24.7506 86.3598 24.5016L74.8099 24.0826L86.3598 23.6637C93.2256 23.4147 98.7346 17.9504 98.989 11.1369L99.405 -5.96486e-06L99.8209 11.1369C100.075 17.9504 105.584 23.4147 112.45 23.6637L124 24.0826L112.45 24.5016C105.584 24.7506 100.075 30.2149 99.8209 37.0284L99.405 48.1653Z" fill="#FFE70F" fill-opacity="0.5"/>
</svg>
