<svg width="90" height="60" viewBox="0 0 90 60" fill="none" xmlns="http://www.w3.org/2000/svg">
<rect width="89.424" height="59.616" rx="6.624" fill="white"/>
<rect x="1.656" y="1.656" width="86.112" height="56.304" rx="4.968" stroke="black" stroke-opacity="0.2" stroke-width="3.312"/>
<path d="M55.2393 18.1697C50.3008 18.1697 45.8876 20.7294 45.8876 25.4586C45.8876 30.8822 53.7146 31.2568 53.7146 33.9814C53.7146 35.1286 52.3999 36.1556 50.1544 36.1556C46.9676 36.1556 44.5858 34.7206 44.5858 34.7206L43.5666 39.4929C43.5666 39.4929 46.3104 40.7051 49.9533 40.7051C55.3526 40.7051 59.6012 38.0197 59.6012 33.2096C59.6012 27.4786 51.7415 27.1151 51.7415 24.5862C51.7415 23.6875 52.8208 22.7028 55.0599 22.7028C57.5862 22.7028 59.6474 23.7464 59.6474 23.7464L60.6448 19.1372C60.6448 19.1372 58.4021 18.1697 55.2393 18.1697ZM10.0571 18.5175L9.9375 19.2133C9.9375 19.2133 12.0151 19.5935 13.8864 20.352C16.2957 21.2218 16.4674 21.7281 16.8731 23.3007L21.2949 40.3463H27.2222L36.3538 18.5175H30.44L24.5724 33.359L22.1781 20.7787C21.9586 19.3389 20.8463 18.5175 19.4849 18.5175H10.0571ZM38.7318 18.5175L34.0926 40.3463H39.7319L44.3548 18.5175H38.7318ZM70.184 18.5175C68.8242 18.5175 68.1037 19.2456 67.575 20.5178L59.3131 40.3463H65.2269L66.3711 37.0416H73.5757L74.2715 40.3463H79.4895L74.9373 18.5175H70.184ZM70.9531 24.415L72.7061 32.6062H68.0098L70.9531 24.415Z" fill="#1434CB"/>
</svg>
